#N canvas 578 113 783 796 10;
#X obj 322 409 noise~;
#X obj 321 707 delwrite~ mainLoop 1000;
#X floatatom 491 238 0 0 1000 0 - - -;
#X obj 491 278 line~;
#X obj 490 257 pack 0 250;
#X obj 491 301 vd~ mainLoop;
#X obj 296 605 dac~;
#X floatatom 130 235 0 0 1000 0 - - -;
#X obj 130 274 line~;
#X obj 130 254 pack 0 250;
#X obj 130 293 vd~ mainLoop;
#X obj 259 539 catch~ feedbackL;
#X obj 491 552 throw~ feedbackL;
#X obj 130 545 throw~ feedbackR;
#X obj 362 539 catch~ feedbackR;
#X obj 32 185 random 1000;
#X obj 142 194 random 1000;
#X obj 419 204 random 1000;
#X obj 547 235 random 1000;
#X obj 247 639 hip~ 15;
#X obj 378 640 hip~ 15;
#X obj 378 661 lop~ 18500;
#X obj 247 659 lop~ 18500;
#X obj 33 147 metro;
#X obj 159 32 tgl 15 0 empty empty empty 17 7 0 10 -262144 -1 -1 0
1;
#X obj 69 147 random 875;
#X obj 70 166 + 125;
#X obj 419 165 metro;
#X obj 456 166 random 875;
#X obj 457 185 + 125;
#X obj 142 156 metro;
#X obj 179 156 random 875;
#X obj 179 176 + 125;
#X obj 548 195 metro;
#X obj 585 196 random 875;
#X obj 586 215 + 125;
#X obj 237 298 line;
#X obj 237 259 * 0.001;
#X obj 238 183 metro;
#X obj 275 183 random 875;
#X obj 276 202 + 125;
#X obj 655 251 line;
#X obj 655 203 * 0.001;
#X obj 652 120 metro;
#X obj 689 120 random 875;
#X obj 690 139 + 125;
#X obj 366 311 metro;
#X obj 404 331 + 125;
#X obj 237 278 pack 0 125;
#X obj 655 226 pack 0 125;
#X obj 367 414 line;
#X obj 367 371 * 0.001;
#X obj 367 394 pack 0 125;
#X obj 366 353 random 1000;
#X obj 517 373 metro;
#X obj 554 374 random 875;
#X obj 555 393 + 125;
#X obj 519 483 line;
#X obj 519 435 * 0.001;
#X obj 519 458 pack 0 125;
#X obj 518 416 random 1000;
#X obj 158 355 metro;
#X obj 197 355 random 875;
#X obj 198 374 + 125;
#X obj 159 452 line;
#X obj 159 414 * 0.001;
#X obj 159 433 pack 0 125;
#X obj 159 395 random 1000;
#X obj 237 239 + 125;
#X obj 655 183 + 125;
#X obj 237 220 random 875;
#X obj 654 163 random 875;
#X obj 33 165 bng 15 250 50 0 empty empty empty 17 7 0 10 -262144 -1
-1;
#X obj 142 176 bng 15 250 50 0 empty empty empty 17 7 0 10 -262144
-1 -1;
#X obj 237 201 bng 15 250 50 0 empty empty empty 17 7 0 10 -262144
-1 -1;
#X obj 554 218 bng 15 250 50 0 empty empty empty 17 7 0 10 -262144
-1 -1;
#X obj 669 144 bng 15 250 50 0 empty empty empty 17 7 0 10 -262144
-1 -1;
#X obj 368 332 bng 15 250 50 0 empty empty empty 17 7 0 10 -262144
-1 -1;
#X obj 518 393 bng 15 250 50 0 empty empty empty 17 7 0 10 -262144
-1 -1;
#X obj 157 375 bng 15 250 50 0 empty empty empty 17 7 0 10 -262144
-1 -1;
#X obj 247 726 delwrite~ mainLeft 10;
#X obj 379 726 delwrite~ mainRight 10;
#X obj 500 350 delread4~ mainLeft;
#X obj 138 332 delread4~ mainRight;
#X obj 443 14 loadbang;
#X msg 444 52 1;
#X obj 321 685 *~ -1;
#X obj 130 312 *~ 0;
#X obj 491 322 *~ 0;
#X obj 323 432 *~ 0;
#X obj 138 474 *~ 0;
#X obj 499 505 *~ 0;
#X obj 414 237 bng 15 250 50 0 empty empty empty 17 7 0 10 -262144
-1 -1;
#X msg 611 601 start;
#X msg 611 647 stop;
#X obj 600 713 writesf~ 2;
#X msg 600 537 open ./genuary10.wav;
#X obj 653 601 del 60000;
#X obj 611 581 b;
#X obj 279 578 *~ 1;
#X obj 322 578 *~ 1;
#X obj 444 33 del 3000;
#X obj 404 311 random 250;
#X connect 0 0 89 0;
#X connect 2 0 4 0;
#X connect 3 0 5 0;
#X connect 4 0 3 0;
#X connect 5 0 88 0;
#X connect 7 0 9 0;
#X connect 8 0 10 0;
#X connect 9 0 8 0;
#X connect 10 0 87 0;
#X connect 11 0 19 0;
#X connect 11 0 99 0;
#X connect 14 0 20 0;
#X connect 14 0 100 0;
#X connect 15 0 7 0;
#X connect 16 0 9 1;
#X connect 17 0 2 0;
#X connect 17 0 92 0;
#X connect 18 0 4 1;
#X connect 19 0 22 0;
#X connect 20 0 21 0;
#X connect 21 0 81 0;
#X connect 21 0 86 0;
#X connect 22 0 80 0;
#X connect 22 0 86 0;
#X connect 23 0 25 0;
#X connect 23 0 15 0;
#X connect 23 0 72 0;
#X connect 24 0 23 0;
#X connect 24 0 30 0;
#X connect 24 0 27 0;
#X connect 24 0 33 0;
#X connect 24 0 38 0;
#X connect 24 0 43 0;
#X connect 24 0 46 0;
#X connect 24 0 54 0;
#X connect 24 0 61 0;
#X connect 25 0 26 0;
#X connect 26 0 23 1;
#X connect 27 0 28 0;
#X connect 27 0 17 0;
#X connect 28 0 29 0;
#X connect 29 0 27 1;
#X connect 30 0 31 0;
#X connect 30 0 16 0;
#X connect 30 0 73 0;
#X connect 31 0 32 0;
#X connect 32 0 30 1;
#X connect 33 0 34 0;
#X connect 33 0 18 0;
#X connect 33 0 75 0;
#X connect 34 0 35 0;
#X connect 35 0 33 1;
#X connect 36 0 87 1;
#X connect 37 0 48 0;
#X connect 38 0 39 0;
#X connect 38 0 70 0;
#X connect 38 0 74 0;
#X connect 39 0 40 0;
#X connect 40 0 38 1;
#X connect 41 0 88 1;
#X connect 42 0 49 0;
#X connect 43 0 44 0;
#X connect 43 0 71 0;
#X connect 43 0 76 0;
#X connect 44 0 45 0;
#X connect 45 0 43 1;
#X connect 46 0 53 0;
#X connect 46 0 77 0;
#X connect 46 0 102 0;
#X connect 47 0 46 1;
#X connect 48 0 36 0;
#X connect 49 0 41 0;
#X connect 50 0 89 1;
#X connect 51 0 52 0;
#X connect 52 0 50 0;
#X connect 53 0 51 0;
#X connect 54 0 55 0;
#X connect 54 0 60 0;
#X connect 54 0 78 0;
#X connect 55 0 56 0;
#X connect 56 0 54 1;
#X connect 57 0 91 1;
#X connect 58 0 59 0;
#X connect 59 0 57 0;
#X connect 60 0 58 0;
#X connect 61 0 62 0;
#X connect 61 0 67 0;
#X connect 61 0 79 0;
#X connect 62 0 63 0;
#X connect 63 0 61 1;
#X connect 64 0 90 1;
#X connect 65 0 66 0;
#X connect 66 0 64 0;
#X connect 67 0 65 0;
#X connect 68 0 37 0;
#X connect 70 0 68 0;
#X connect 71 0 42 0;
#X connect 71 0 69 0;
#X connect 82 0 91 0;
#X connect 83 0 90 0;
#X connect 84 0 96 0;
#X connect 84 0 101 0;
#X connect 85 0 24 0;
#X connect 86 0 1 0;
#X connect 87 0 13 0;
#X connect 88 0 12 0;
#X connect 89 0 12 0;
#X connect 89 0 13 0;
#X connect 90 0 13 0;
#X connect 91 0 12 0;
#X connect 93 0 95 0;
#X connect 94 0 95 0;
#X connect 96 0 95 0;
#X connect 96 0 98 0;
#X connect 97 0 94 0;
#X connect 98 0 93 0;
#X connect 98 0 97 0;
#X connect 99 0 6 0;
#X connect 99 0 95 0;
#X connect 100 0 6 1;
#X connect 100 0 95 1;
#X connect 101 0 85 0;
#X connect 102 0 47 0;
